<svg aria-roledescription="sequence" role="graphics-document document" viewBox="-232.5 -10 1530.5 2260" style="max-width: 1530.5px; background-color: white;" xmlns:xlink="http://www.w3.org/1999/xlink" xmlns="http://www.w3.org/2000/svg" width="100%" id="mermaid-1763498049396"><style>#mermaid-1763498049396{font-family:"trebuchet ms",verdana,arial,sans-serif;font-size:16px;fill:#333;}#mermaid-1763498049396 .error-icon{fill:#552222;}#mermaid-1763498049396 .error-text{fill:#552222;stroke:#552222;}#mermaid-1763498049396 .edge-thickness-normal{stroke-width:2px;}#mermaid-1763498049396 .edge-thickness-thick{stroke-width:3.5px;}#mermaid-1763498049396 .edge-pattern-solid{stroke-dasharray:0;}#mermaid-1763498049396 .edge-pattern-dashed{stroke-dasharray:3;}#mermaid-1763498049396 .edge-pattern-dotted{stroke-dasharray:2;}#mermaid-1763498049396 .marker{fill:#333333;stroke:#333333;}#mermaid-1763498049396 .marker.cross{stroke:#333333;}#mermaid-1763498049396 svg{font-family:"trebuchet ms",verdana,arial,sans-serif;font-size:16px;}#mermaid-1763498049396 .actor{stroke:hsl(259.6261682243, 59.7765363128%, 87.9019607843%);fill:#ECECFF;}#mermaid-1763498049396 text.actor&gt;tspan{fill:black;stroke:none;}#mermaid-1763498049396 .actor-line{stroke:grey;}#mermaid-1763498049396 .messageLine0{stroke-width:1.5;stroke-dasharray:none;stroke:#333;}#mermaid-1763498049396 .messageLine1{stroke-width:1.5;stroke-dasharray:2,2;stroke:#333;}#mermaid-1763498049396 #arrowhead path{fill:#333;stroke:#333;}#mermaid-1763498049396 .sequenceNumber{fill:white;}#mermaid-1763498049396 #sequencenumber{fill:#333;}#mermaid-1763498049396 #crosshead path{fill:#333;stroke:#333;}#mermaid-1763498049396 .messageText{fill:#333;stroke:none;}#mermaid-1763498049396 .labelBox{stroke:hsl(259.6261682243, 59.7765363128%, 87.9019607843%);fill:#ECECFF;}#mermaid-1763498049396 .labelText,#mermaid-1763498049396 .labelText&gt;tspan{fill:black;stroke:none;}#mermaid-1763498049396 .loopText,#mermaid-1763498049396 .loopText&gt;tspan{fill:black;stroke:none;}#mermaid-1763498049396 .loopLine{stroke-width:2px;stroke-dasharray:2,2;stroke:hsl(259.6261682243, 59.7765363128%, 87.9019607843%);fill:hsl(259.6261682243, 59.7765363128%, 87.9019607843%);}#mermaid-1763498049396 .note{stroke:#aaaa33;fill:#fff5ad;}#mermaid-1763498049396 .noteText,#mermaid-1763498049396 .noteText&gt;tspan{fill:black;stroke:none;}#mermaid-1763498049396 .activation0{fill:#f4f4f4;stroke:#666;}#mermaid-1763498049396 .activation1{fill:#f4f4f4;stroke:#666;}#mermaid-1763498049396 .activation2{fill:#f4f4f4;stroke:#666;}#mermaid-1763498049396 .actorPopupMenu{position:absolute;}#mermaid-1763498049396 .actorPopupMenuPanel{position:absolute;fill:#ECECFF;box-shadow:0px 8px 16px 0px rgba(0,0,0,0.2);filter:drop-shadow(3px 5px 2px rgb(0 0 0 / 0.4));}#mermaid-1763498049396 .actor-man line{stroke:hsl(259.6261682243, 59.7765363128%, 87.9019607843%);fill:#ECECFF;}#mermaid-1763498049396 .actor-man circle,#mermaid-1763498049396 line{stroke:hsl(259.6261682243, 59.7765363128%, 87.9019607843%);fill:#ECECFF;stroke-width:2px;}#mermaid-1763498049396 :root{--mermaid-font-family:"trebuchet ms",verdana,arial,sans-serif;}</style><g/><defs><symbol height="24" width="24" id="computer"><path d="M2 2v13h20v-13h-20zm18 11h-16v-9h16v9zm-10.228 6l.466-1h3.524l.467 1h-4.457zm14.228 3h-24l2-6h2.104l-1.33 4h18.45l-1.297-4h2.073l2 6zm-5-10h-14v-7h14v7z" transform="scale(.5)"/></symbol></defs><defs><symbol clip-rule="evenodd" fill-rule="evenodd" id="database"><path d="M12.258.001l.256.004.255.005.253.008.251.01.249.012.247.015.246.016.242.019.241.02.239.023.236.024.233.027.231.028.229.031.225.032.223.034.22.036.217.038.214.04.211.041.208.043.205.045.201.046.198.048.194.05.191.051.187.053.183.054.18.056.175.057.172.059.168.06.163.061.16.063.155.064.15.066.074.033.073.033.071.034.07.034.069.035.068.035.067.035.066.035.064.036.064.036.062.036.06.036.06.037.058.037.058.037.055.038.055.038.053.038.052.038.051.039.05.039.048.039.047.039.045.04.044.04.043.04.041.04.04.041.039.041.037.041.036.041.034.041.033.042.032.042.03.042.029.042.027.042.026.043.024.043.023.043.021.043.02.043.018.044.017.043.015.044.013.044.012.044.011.045.009.044.007.045.006.045.004.045.002.045.001.045v17l-.001.045-.002.045-.004.045-.006.045-.007.045-.009.044-.011.045-.012.044-.013.044-.015.044-.017.043-.018.044-.02.043-.021.043-.023.043-.024.043-.026.043-.027.042-.029.042-.03.042-.032.042-.033.042-.034.041-.036.041-.037.041-.039.041-.04.041-.041.04-.043.04-.044.04-.045.04-.047.039-.048.039-.05.039-.051.039-.052.038-.053.038-.055.038-.055.038-.058.037-.058.037-.06.037-.06.036-.062.036-.064.036-.064.036-.066.035-.067.035-.068.035-.069.035-.07.034-.071.034-.073.033-.074.033-.15.066-.155.064-.16.063-.163.061-.168.06-.172.059-.175.057-.18.056-.183.054-.187.053-.191.051-.194.05-.198.048-.201.046-.205.045-.208.043-.211.041-.214.04-.217.038-.22.036-.223.034-.225.032-.229.031-.231.028-.233.027-.236.024-.239.023-.241.02-.242.019-.246.016-.247.015-.249.012-.251.01-.253.008-.255.005-.256.004-.258.001-.258-.001-.256-.004-.255-.005-.253-.008-.251-.01-.249-.012-.247-.015-.245-.016-.243-.019-.241-.02-.238-.023-.236-.024-.234-.027-.231-.028-.228-.031-.226-.032-.223-.034-.22-.036-.217-.038-.214-.04-.211-.041-.208-.043-.204-.045-.201-.046-.198-.048-.195-.05-.19-.051-.187-.053-.184-.054-.179-.056-.176-.057-.172-.059-.167-.06-.164-.061-.159-.063-.155-.064-.151-.066-.074-.033-.072-.033-.072-.034-.07-.034-.069-.035-.068-.035-.067-.035-.066-.035-.064-.036-.063-.036-.062-.036-.061-.036-.06-.037-.058-.037-.057-.037-.056-.038-.055-.038-.053-.038-.052-.038-.051-.039-.049-.039-.049-.039-.046-.039-.046-.04-.044-.04-.043-.04-.041-.04-.04-.041-.039-.041-.037-.041-.036-.041-.034-.041-.033-.042-.032-.042-.03-.042-.029-.042-.027-.042-.026-.043-.024-.043-.023-.043-.021-.043-.02-.043-.018-.044-.017-.043-.015-.044-.013-.044-.012-.044-.011-.045-.009-.044-.007-.045-.006-.045-.004-.045-.002-.045-.001-.045v-17l.001-.045.002-.045.004-.045.006-.045.007-.045.009-.044.011-.045.012-.044.013-.044.015-.044.017-.043.018-.044.02-.043.021-.043.023-.043.024-.043.026-.043.027-.042.029-.042.03-.042.032-.042.033-.042.034-.041.036-.041.037-.041.039-.041.04-.041.041-.04.043-.04.044-.04.046-.04.046-.039.049-.039.049-.039.051-.039.052-.038.053-.038.055-.038.056-.038.057-.037.058-.037.06-.037.061-.036.062-.036.063-.036.064-.036.066-.035.067-.035.068-.035.069-.035.07-.034.072-.034.072-.033.074-.033.151-.066.155-.064.159-.063.164-.061.167-.06.172-.059.176-.057.179-.056.184-.054.187-.053.19-.051.195-.05.198-.048.201-.046.204-.045.208-.043.211-.041.214-.04.217-.038.22-.036.223-.034.226-.032.228-.031.231-.028.234-.027.236-.024.238-.023.241-.02.243-.019.245-.016.247-.015.249-.012.251-.01.253-.008.255-.005.256-.004.258-.001.258.001zm-9.258 20.499v.01l.001.021.003.021.004.022.005.021.006.022.007.022.009.023.01.022.011.023.012.023.013.023.015.023.016.024.017.023.018.024.019.024.021.024.022.025.023.024.024.025.052.049.056.05.061.051.066.051.07.051.075.051.079.052.084.052.088.052.092.052.097.052.102.051.105.052.11.052.114.051.119.051.123.051.127.05.131.05.135.05.139.048.144.049.147.047.152.047.155.047.16.045.163.045.167.043.171.043.176.041.178.041.183.039.187.039.19.037.194.035.197.035.202.033.204.031.209.03.212.029.216.027.219.025.222.024.226.021.23.02.233.018.236.016.24.015.243.012.246.01.249.008.253.005.256.004.259.001.26-.001.257-.004.254-.005.25-.008.247-.011.244-.012.241-.014.237-.016.233-.018.231-.021.226-.021.224-.024.22-.026.216-.027.212-.028.21-.031.205-.031.202-.034.198-.034.194-.036.191-.037.187-.039.183-.04.179-.04.175-.042.172-.043.168-.044.163-.045.16-.046.155-.046.152-.047.148-.048.143-.049.139-.049.136-.05.131-.05.126-.05.123-.051.118-.052.114-.051.11-.052.106-.052.101-.052.096-.052.092-.052.088-.053.083-.051.079-.052.074-.052.07-.051.065-.051.06-.051.056-.05.051-.05.023-.024.023-.025.021-.024.02-.024.019-.024.018-.024.017-.024.015-.023.014-.024.013-.023.012-.023.01-.023.01-.022.008-.022.006-.022.006-.022.004-.022.004-.021.001-.021.001-.021v-4.127l-.077.055-.08.053-.083.054-.085.053-.087.052-.09.052-.093.051-.095.05-.097.05-.1.049-.102.049-.105.048-.106.047-.109.047-.111.046-.114.045-.115.045-.118.044-.12.043-.122.042-.124.042-.126.041-.128.04-.13.04-.132.038-.134.038-.135.037-.138.037-.139.035-.142.035-.143.034-.144.033-.147.032-.148.031-.15.03-.151.03-.153.029-.154.027-.156.027-.158.026-.159.025-.161.024-.162.023-.163.022-.165.021-.166.02-.167.019-.169.018-.169.017-.171.016-.173.015-.173.014-.175.013-.175.012-.177.011-.178.01-.179.008-.179.008-.181.006-.182.005-.182.004-.184.003-.184.002h-.37l-.184-.002-.184-.003-.182-.004-.182-.005-.181-.006-.179-.008-.179-.008-.178-.01-.176-.011-.176-.012-.175-.013-.173-.014-.172-.015-.171-.016-.17-.017-.169-.018-.167-.019-.166-.02-.165-.021-.163-.022-.162-.023-.161-.024-.159-.025-.157-.026-.156-.027-.155-.027-.153-.029-.151-.03-.15-.03-.148-.031-.146-.032-.145-.033-.143-.034-.141-.035-.14-.035-.137-.037-.136-.037-.134-.038-.132-.038-.13-.04-.128-.04-.126-.041-.124-.042-.122-.042-.12-.044-.117-.043-.116-.045-.113-.045-.112-.046-.109-.047-.106-.047-.105-.048-.102-.049-.1-.049-.097-.05-.095-.05-.093-.052-.09-.051-.087-.052-.085-.053-.083-.054-.08-.054-.077-.054v4.127zm0-5.654v.011l.001.021.003.021.004.021.005.022.006.022.007.022.009.022.01.022.011.023.012.023.013.023.015.024.016.023.017.024.018.024.019.024.021.024.022.024.023.025.024.024.052.05.056.05.061.05.066.051.07.051.075.052.079.051.084.052.088.052.092.052.097.052.102.052.105.052.11.051.114.051.119.052.123.05.127.051.131.05.135.049.139.049.144.048.147.048.152.047.155.046.16.045.163.045.167.044.171.042.176.042.178.04.183.04.187.038.19.037.194.036.197.034.202.033.204.032.209.03.212.028.216.027.219.025.222.024.226.022.23.02.233.018.236.016.24.014.243.012.246.01.249.008.253.006.256.003.259.001.26-.001.257-.003.254-.006.25-.008.247-.01.244-.012.241-.015.237-.016.233-.018.231-.02.226-.022.224-.024.22-.025.216-.027.212-.029.21-.03.205-.032.202-.033.198-.035.194-.036.191-.037.187-.039.183-.039.179-.041.175-.042.172-.043.168-.044.163-.045.16-.045.155-.047.152-.047.148-.048.143-.048.139-.05.136-.049.131-.05.126-.051.123-.051.118-.051.114-.052.11-.052.106-.052.101-.052.096-.052.092-.052.088-.052.083-.052.079-.052.074-.051.07-.052.065-.051.06-.05.056-.051.051-.049.023-.025.023-.024.021-.025.02-.024.019-.024.018-.024.017-.024.015-.023.014-.023.013-.024.012-.022.01-.023.01-.023.008-.022.006-.022.006-.022.004-.021.004-.022.001-.021.001-.021v-4.139l-.077.054-.08.054-.083.054-.085.052-.087.053-.09.051-.093.051-.095.051-.097.05-.1.049-.102.049-.105.048-.106.047-.109.047-.111.046-.114.045-.115.044-.118.044-.12.044-.122.042-.124.042-.126.041-.128.04-.13.039-.132.039-.134.038-.135.037-.138.036-.139.036-.142.035-.143.033-.144.033-.147.033-.148.031-.15.03-.151.03-.153.028-.154.028-.156.027-.158.026-.159.025-.161.024-.162.023-.163.022-.165.021-.166.02-.167.019-.169.018-.169.017-.171.016-.173.015-.173.014-.175.013-.175.012-.177.011-.178.009-.179.009-.179.007-.181.007-.182.005-.182.004-.184.003-.184.002h-.37l-.184-.002-.184-.003-.182-.004-.182-.005-.181-.007-.179-.007-.179-.009-.178-.009-.176-.011-.176-.012-.175-.013-.173-.014-.172-.015-.171-.016-.17-.017-.169-.018-.167-.019-.166-.02-.165-.021-.163-.022-.162-.023-.161-.024-.159-.025-.157-.026-.156-.027-.155-.028-.153-.028-.151-.03-.15-.03-.148-.031-.146-.033-.145-.033-.143-.033-.141-.035-.14-.036-.137-.036-.136-.037-.134-.038-.132-.039-.13-.039-.128-.04-.126-.041-.124-.042-.122-.043-.12-.043-.117-.044-.116-.044-.113-.046-.112-.046-.109-.046-.106-.047-.105-.048-.102-.049-.1-.049-.097-.05-.095-.051-.093-.051-.09-.051-.087-.053-.085-.052-.083-.054-.08-.054-.077-.054v4.139zm0-5.666v.011l.001.02.003.022.004.021.005.022.006.021.007.022.009.023.01.022.011.023.012.023.013.023.015.023.016.024.017.024.018.023.019.024.021.025.022.024.023.024.024.025.052.05.056.05.061.05.066.051.07.051.075.052.079.051.084.052.088.052.092.052.097.052.102.052.105.051.11.052.114.051.119.051.123.051.127.05.131.05.135.05.139.049.144.048.147.048.152.047.155.046.16.045.163.045.167.043.171.043.176.042.178.04.183.04.187.038.19.037.194.036.197.034.202.033.204.032.209.03.212.028.216.027.219.025.222.024.226.021.23.02.233.018.236.017.24.014.243.012.246.01.249.008.253.006.256.003.259.001.26-.001.257-.003.254-.006.25-.008.247-.01.244-.013.241-.014.237-.016.233-.018.231-.02.226-.022.224-.024.22-.025.216-.027.212-.029.21-.03.205-.032.202-.033.198-.035.194-.036.191-.037.187-.039.183-.039.179-.041.175-.042.172-.043.168-.044.163-.045.16-.045.155-.047.152-.047.148-.048.143-.049.139-.049.136-.049.131-.051.126-.05.123-.051.118-.052.114-.051.11-.052.106-.052.101-.052.096-.052.092-.052.088-.052.083-.052.079-.052.074-.052.07-.051.065-.051.06-.051.056-.05.051-.049.023-.025.023-.025.021-.024.02-.024.019-.024.018-.024.017-.024.015-.023.014-.024.013-.023.012-.023.01-.022.01-.023.008-.022.006-.022.006-.022.004-.022.004-.021.001-.021.001-.021v-4.153l-.077.054-.08.054-.083.053-.085.053-.087.053-.09.051-.093.051-.095.051-.097.05-.1.049-.102.048-.105.048-.106.048-.109.046-.111.046-.114.046-.115.044-.118.044-.12.043-.122.043-.124.042-.126.041-.128.04-.13.039-.132.039-.134.038-.135.037-.138.036-.139.036-.142.034-.143.034-.144.033-.147.032-.148.032-.15.03-.151.03-.153.028-.154.028-.156.027-.158.026-.159.024-.161.024-.162.023-.163.023-.165.021-.166.02-.167.019-.169.018-.169.017-.171.016-.173.015-.173.014-.175.013-.175.012-.177.01-.178.01-.179.009-.179.007-.181.006-.182.006-.182.004-.184.003-.184.001-.185.001-.185-.001-.184-.001-.184-.003-.182-.004-.182-.006-.181-.006-.179-.007-.179-.009-.178-.01-.176-.01-.176-.012-.175-.013-.173-.014-.172-.015-.171-.016-.17-.017-.169-.018-.167-.019-.166-.02-.165-.021-.163-.023-.162-.023-.161-.024-.159-.024-.157-.026-.156-.027-.155-.028-.153-.028-.151-.03-.15-.03-.148-.032-.146-.032-.145-.033-.143-.034-.141-.034-.14-.036-.137-.036-.136-.037-.134-.038-.132-.039-.13-.039-.128-.041-.126-.041-.124-.041-.122-.043-.12-.043-.117-.044-.116-.044-.113-.046-.112-.046-.109-.046-.106-.048-.105-.048-.102-.048-.1-.05-.097-.049-.095-.051-.093-.051-.09-.052-.087-.052-.085-.053-.083-.053-.08-.054-.077-.054v4.153zm8.74-8.179l-.257.004-.254.005-.25.008-.247.011-.244.012-.241.014-.237.016-.233.018-.231.021-.226.022-.224.023-.22.026-.216.027-.212.028-.21.031-.205.032-.202.033-.198.034-.194.036-.191.038-.187.038-.183.04-.179.041-.175.042-.172.043-.168.043-.163.045-.16.046-.155.046-.152.048-.148.048-.143.048-.139.049-.136.05-.131.05-.126.051-.123.051-.118.051-.114.052-.11.052-.106.052-.101.052-.096.052-.092.052-.088.052-.083.052-.079.052-.074.051-.07.052-.065.051-.06.05-.056.05-.051.05-.023.025-.023.024-.021.024-.02.025-.019.024-.018.024-.017.023-.015.024-.014.023-.013.023-.012.023-.01.023-.01.022-.008.022-.006.023-.006.021-.004.022-.004.021-.001.021-.001.021.001.021.001.021.004.021.004.022.006.021.006.023.008.022.01.022.01.023.012.023.013.023.014.023.015.024.017.023.018.024.019.024.02.025.021.024.023.024.023.025.051.05.056.05.06.05.065.051.07.052.074.051.079.052.083.052.088.052.092.052.096.052.101.052.106.052.11.052.114.052.118.051.123.051.126.051.131.05.136.05.139.049.143.048.148.048.152.048.155.046.16.046.163.045.168.043.172.043.175.042.179.041.183.04.187.038.191.038.194.036.198.034.202.033.205.032.21.031.212.028.216.027.22.026.224.023.226.022.231.021.233.018.237.016.241.014.244.012.247.011.25.008.254.005.257.004.26.001.26-.001.257-.004.254-.005.25-.008.247-.011.244-.012.241-.014.237-.016.233-.018.231-.021.226-.022.224-.023.22-.026.216-.027.212-.028.21-.031.205-.032.202-.033.198-.034.194-.036.191-.038.187-.038.183-.04.179-.041.175-.042.172-.043.168-.043.163-.045.16-.046.155-.046.152-.048.148-.048.143-.048.139-.049.136-.05.131-.05.126-.051.123-.051.118-.051.114-.052.11-.052.106-.052.101-.052.096-.052.092-.052.088-.052.083-.052.079-.052.074-.051.07-.052.065-.051.06-.05.056-.05.051-.05.023-.025.023-.024.021-.024.02-.025.019-.024.018-.024.017-.023.015-.024.014-.023.013-.023.012-.023.01-.023.01-.022.008-.022.006-.023.006-.021.004-.022.004-.021.001-.021.001-.021-.001-.021-.001-.021-.004-.021-.004-.022-.006-.021-.006-.023-.008-.022-.01-.022-.01-.023-.012-.023-.013-.023-.014-.023-.015-.024-.017-.023-.018-.024-.019-.024-.02-.025-.021-.024-.023-.024-.023-.025-.051-.05-.056-.05-.06-.05-.065-.051-.07-.052-.074-.051-.079-.052-.083-.052-.088-.052-.092-.052-.096-.052-.101-.052-.106-.052-.11-.052-.114-.052-.118-.051-.123-.051-.126-.051-.131-.05-.136-.05-.139-.049-.143-.048-.148-.048-.152-.048-.155-.046-.16-.046-.163-.045-.168-.043-.172-.043-.175-.042-.179-.041-.183-.04-.187-.038-.191-.038-.194-.036-.198-.034-.202-.033-.205-.032-.21-.031-.212-.028-.216-.027-.22-.026-.224-.023-.226-.022-.231-.021-.233-.018-.237-.016-.241-.014-.244-.012-.247-.011-.25-.008-.254-.005-.257-.004-.26-.001-.26.001z" transform="scale(.5)"/></symbol></defs><defs><symbol height="24" width="24" id="clock"><path d="M12 2c5.514 0 10 4.486 10 10s-4.486 10-10 10-10-4.486-10-10 4.486-10 10-10zm0-2c-6.627 0-12 5.373-12 12s5.373 12 12 12 12-5.373 12-12-5.373-12-12-12zm5.848 12.459c.202.038.202.333.001.372-1.907.361-6.045 1.111-6.547 1.111-.719 0-1.301-.582-1.301-1.301 0-.512.77-5.447 1.125-7.445.034-.192.312-.181.343.014l.985 6.238 5.394 1.011z" transform="scale(.5)"/></symbol></defs><g><line stroke="#999" stroke-width="0.5px" class="200" y2="2194" x2="75" y1="5" x1="75" id="actor0"/><g id="root-0"><rect class="actor" ry="3" rx="3" height="65" width="150" stroke="#666" fill="#eaeaea" y="0" x="0"/><text style="text-anchor: middle; font-size: 16px; font-weight: 400;" class="actor" alignment-baseline="central" dominant-baseline="central" y="32.5" x="75"><tspan dy="0" x="75">Alice (Navegador)</tspan></text></g></g><g><line stroke="#999" stroke-width="0.5px" class="200" y2="2194" x2="471" y1="5" x1="471" id="actor1"/><g id="root-1"><rect class="actor" ry="3" rx="3" height="65" width="150" stroke="#666" fill="#eaeaea" y="0" x="396"/><text style="text-anchor: middle; font-size: 16px; font-weight: 400;" class="actor" alignment-baseline="central" dominant-baseline="central" y="32.5" x="471"><tspan dy="0" x="471">Servidor Flask</tspan></text></g></g><g><line stroke="#999" stroke-width="0.5px" class="200" y2="2194" x2="822" y1="5" x1="822" id="actor2"/><g id="root-2"><rect class="actor" ry="3" rx="3" height="65" width="150" stroke="#666" fill="#eaeaea" y="0" x="747"/><text style="text-anchor: middle; font-size: 16px; font-weight: 400;" class="actor" alignment-baseline="central" dominant-baseline="central" y="32.5" x="822"><tspan dy="0" x="822">Base de Datos</tspan></text></g></g><g><line stroke="#999" stroke-width="0.5px" class="200" y2="2194" x2="1022" y1="5" x1="1022" id="actor3"/><g id="root-3"><rect class="actor" ry="3" rx="3" height="65" width="150" stroke="#666" fill="#eaeaea" y="0" x="947"/><text style="text-anchor: middle; font-size: 16px; font-weight: 400;" class="actor" alignment-baseline="central" dominant-baseline="central" y="32.5" x="1022"><tspan dy="0" x="1022">Bob (Navegador)</tspan></text></g></g><defs><marker orient="auto" markerHeight="12" markerWidth="12" markerUnits="userSpaceOnUse" refY="5" refX="9" id="arrowhead"><path d="M 0 0 L 10 5 L 0 10 z"/></marker></defs><defs><marker refY="5" refX="4" orient="auto" markerHeight="8" markerWidth="15" id="crosshead"><path style="stroke-dasharray: 0, 0;" d="M 1,2 L 6,7 M 6,2 L 1,7" stroke-width="1pt" stroke="#000000" fill="none"/></marker></defs><defs><marker orient="auto" markerHeight="28" markerWidth="20" refY="7" refX="18" id="filled-head"><path d="M 18,7 L9,13 L14,7 L9,1 Z"/></marker></defs><defs><marker orient="auto" markerHeight="40" markerWidth="60" refY="15" refX="15" id="sequencenumber"><circle r="6" cy="15" cx="15"/></marker></defs><g><rect class="note" ry="0" rx="0" height="39" width="446" stroke="#666" fill="#EDF2AE" y="75" x="50"/><text style="font-size: 16px; font-weight: 400;" dy="1em" class="noteText" alignment-baseline="middle" dominant-baseline="middle" text-anchor="middle" y="80" x="273"><tspan x="273">FASE 1: Registro y Autenticación</tspan></text></g><g><rect class="note" ry="0" rx="0" height="39" width="446" stroke="#666" fill="#EDF2AE" y="684" x="50"/><text style="font-size: 16px; font-weight: 400;" dy="1em" class="noteText" alignment-baseline="middle" dominant-baseline="middle" text-anchor="middle" y="689" x="273"><tspan x="273">FASE 2: Publicación de Llaves (PKI Simplificada)</tspan></text></g><g><rect class="note" ry="0" rx="0" height="39" width="601" stroke="#666" fill="#EDF2AE" y="895" x="446"/><text style="font-size: 16px; font-weight: 400;" dy="1em" class="noteText" alignment-baseline="middle" dominant-baseline="middle" text-anchor="middle" y="900" x="747"><tspan x="747">(Bob realiza el mismo proceso de registro y login)</tspan></text></g><g><rect class="note" ry="0" rx="0" height="39" width="997" stroke="#666" fill="#EDF2AE" y="944" x="50"/><text style="font-size: 16px; font-weight: 400;" dy="1em" class="noteText" alignment-baseline="middle" dominant-baseline="middle" text-anchor="middle" y="949" x="549"><tspan x="549">FASE 3: Envío de Mensaje Seguro (E2EE)</tspan></text></g><g><rect class="note" ry="0" rx="0" height="39" width="346" stroke="#666" fill="#EDF2AE" y="1391" x="100"/><text style="font-size: 16px; font-weight: 400;" dy="1em" class="noteText" alignment-baseline="middle" dominant-baseline="middle" text-anchor="middle" y="1396" x="273"><tspan x="273">Payload: {Ciphertext, Nonce, Tag, EncryptedKey}</tspan></text></g><g><rect class="note" ry="0" rx="0" height="39" width="997" stroke="#666" fill="#EDF2AE" y="1528" x="50"/><text style="font-size: 16px; font-weight: 400;" dy="1em" class="noteText" alignment-baseline="middle" dominant-baseline="middle" text-anchor="middle" y="1533" x="549"><tspan x="549">FASE 4: Recepción y Descifrado</tspan></text></g><g><line class="loopLine" y2="1709" x2="1248" y1="1709" x1="796"/><line class="loopLine" y2="2154" x2="1248" y1="1709" x1="1248"/><line class="loopLine" y2="2154" x2="1248" y1="2154" x1="796"/><line class="loopLine" y2="2154" x2="796" y1="1709" x1="796"/><polygon class="labelBox" points="796,1709 846,1709 846,1722 837.6,1729 796,1729"/><text style="font-size: 16px; font-weight: 400;" class="labelText" alignment-baseline="middle" dominant-baseline="middle" text-anchor="middle" y="1722" x="821">loop</text><text style="font-size: 16px; font-weight: 400;" class="loopText" text-anchor="middle" y="1727" x="1047"><tspan x="1047">[Por cada mensaje]</tspan></text></g><text style="font-size: 16px; font-weight: 400;" dy="1em" class="messageText" alignment-baseline="middle" dominant-baseline="middle" text-anchor="middle" y="129" x="273">POST /api/register (ID, Password)</text><line style="fill: none;" marker-start="url(#sequencenumber)" marker-end="url(#arrowhead)" stroke="none" stroke-width="2" class="messageLine0" y2="158" x2="471" y1="158" x1="75"/><text class="sequenceNumber" text-anchor="middle" font-size="12px" font-family="sans-serif" y="162" x="75">1</text><text style="font-size: 16px; font-weight: 400;" dy="1em" class="messageText" alignment-baseline="middle" dominant-baseline="middle" text-anchor="middle" y="173" x="471">Generar Secreto TOTP</text><path style="fill: none;" marker-start="url(#sequencenumber)" marker-end="url(#arrowhead)" stroke="none" stroke-width="2" class="messageLine0" d="M 471,202 C 531,192 531,232 471,222"/><text class="sequenceNumber" text-anchor="middle" font-size="12px" font-family="sans-serif" y="206" x="471">2</text><text style="font-size: 16px; font-weight: 400;" dy="1em" class="messageText" alignment-baseline="middle" dominant-baseline="middle" text-anchor="middle" y="247" x="471">HMAC-SHA256(Password)</text><path style="fill: none;" marker-start="url(#sequencenumber)" marker-end="url(#arrowhead)" stroke="none" stroke-width="2" class="messageLine0" d="M 471,276 C 531,266 531,306 471,296"/><text class="sequenceNumber" text-anchor="middle" font-size="12px" font-family="sans-serif" y="280" x="471">3</text><text style="font-size: 16px; font-weight: 400;" dy="1em" class="messageText" alignment-baseline="middle" dominant-baseline="middle" text-anchor="middle" y="321" x="647">INSERT User (Hash, TOTP_Secret)</text><line style="fill: none;" marker-start="url(#sequencenumber)" marker-end="url(#arrowhead)" stroke="none" stroke-width="2" class="messageLine0" y2="350" x2="822" y1="350" x1="471"/><text class="sequenceNumber" text-anchor="middle" font-size="12px" font-family="sans-serif" y="354" x="471">4</text><text style="font-size: 16px; font-weight: 400;" dy="1em" class="messageText" alignment-baseline="middle" dominant-baseline="middle" text-anchor="middle" y="365" x="273">OK (User Created)</text><line style="stroke-dasharray: 3, 3; fill: none;" marker-start="url(#sequencenumber)" marker-end="url(#arrowhead)" stroke="none" stroke-width="2" class="messageLine1" y2="394" x2="75" y1="394" x1="471"/><text class="sequenceNumber" text-anchor="middle" font-size="12px" font-family="sans-serif" y="398" x="471">5</text><text style="font-size: 16px; font-weight: 400;" dy="1em" class="messageText" alignment-baseline="middle" dominant-baseline="middle" text-anchor="middle" y="409" x="273">POST /api/login (ID, Password, TOTP Code)</text><line style="fill: none;" marker-start="url(#sequencenumber)" marker-end="url(#arrowhead)" stroke="none" stroke-width="2" class="messageLine0" y2="438" x2="471" y1="438" x1="75"/><text class="sequenceNumber" text-anchor="middle" font-size="12px" font-family="sans-serif" y="442" x="75">6</text><text style="font-size: 16px; font-weight: 400;" dy="1em" class="messageText" alignment-baseline="middle" dominant-baseline="middle" text-anchor="middle" y="453" x="647">SELECT User</text><line style="fill: none;" marker-start="url(#sequencenumber)" marker-end="url(#arrowhead)" stroke="none" stroke-width="2" class="messageLine0" y2="482" x2="822" y1="482" x1="471"/><text class="sequenceNumber" text-anchor="middle" font-size="12px" font-family="sans-serif" y="486" x="471">7</text><text style="font-size: 16px; font-weight: 400;" dy="1em" class="messageText" alignment-baseline="middle" dominant-baseline="middle" text-anchor="middle" y="497" x="471">Verificar HMAC Password</text><path style="fill: none;" marker-start="url(#sequencenumber)" marker-end="url(#arrowhead)" stroke="none" stroke-width="2" class="messageLine0" d="M 471,526 C 531,516 531,556 471,546"/><text class="sequenceNumber" text-anchor="middle" font-size="12px" font-family="sans-serif" y="530" x="471">8</text><text style="font-size: 16px; font-weight: 400;" dy="1em" class="messageText" alignment-baseline="middle" dominant-baseline="middle" text-anchor="middle" y="571" x="471">Verificar TOTP (Ventana ±30s)</text><path style="fill: none;" marker-start="url(#sequencenumber)" marker-end="url(#arrowhead)" stroke="none" stroke-width="2" class="messageLine0" d="M 471,600 C 531,590 531,630 471,620"/><text class="sequenceNumber" text-anchor="middle" font-size="12px" font-family="sans-serif" y="604" x="471">9</text><text style="font-size: 16px; font-weight: 400;" dy="1em" class="messageText" alignment-baseline="middle" dominant-baseline="middle" text-anchor="middle" y="645" x="273">Session Token (HMAC Signed)</text><line style="stroke-dasharray: 3, 3; fill: none;" marker-start="url(#sequencenumber)" marker-end="url(#arrowhead)" stroke="none" stroke-width="2" class="messageLine1" y2="674" x2="75" y1="674" x1="471"/><text class="sequenceNumber" text-anchor="middle" font-size="12px" font-family="sans-serif" y="678" x="471">10</text><text style="font-size: 16px; font-weight: 400;" dy="1em" class="messageText" alignment-baseline="middle" dominant-baseline="middle" text-anchor="middle" y="738" x="75">Generar RSA-2048 KeyPair</text><path style="fill: none;" marker-start="url(#sequencenumber)" marker-end="url(#arrowhead)" stroke="none" stroke-width="2" class="messageLine0" d="M 75,767 C 135,757 135,797 75,787"/><text class="sequenceNumber" text-anchor="middle" font-size="12px" font-family="sans-serif" y="771" x="75">11</text><text style="font-size: 16px; font-weight: 400;" dy="1em" class="messageText" alignment-baseline="middle" dominant-baseline="middle" text-anchor="middle" y="812" x="273">POST /api/devices (Public Key PEM)</text><line style="fill: none;" marker-start="url(#sequencenumber)" marker-end="url(#arrowhead)" stroke="none" stroke-width="2" class="messageLine0" y2="841" x2="471" y1="841" x1="75"/><text class="sequenceNumber" text-anchor="middle" font-size="12px" font-family="sans-serif" y="845" x="75">12</text><text style="font-size: 16px; font-weight: 400;" dy="1em" class="messageText" alignment-baseline="middle" dominant-baseline="middle" text-anchor="middle" y="856" x="647">INSERT Device Key</text><line style="fill: none;" marker-start="url(#sequencenumber)" marker-end="url(#arrowhead)" stroke="none" stroke-width="2" class="messageLine0" y2="885" x2="822" y1="885" x1="471"/><text class="sequenceNumber" text-anchor="middle" font-size="12px" font-family="sans-serif" y="889" x="471">13</text><text style="font-size: 16px; font-weight: 400;" dy="1em" class="messageText" alignment-baseline="middle" dominant-baseline="middle" text-anchor="middle" y="998" x="273">GET /api/users/bob (Busca a Bob)</text><line style="fill: none;" marker-start="url(#sequencenumber)" marker-end="url(#arrowhead)" stroke="none" stroke-width="2" class="messageLine0" y2="1027" x2="471" y1="1027" x1="75"/><text class="sequenceNumber" text-anchor="middle" font-size="12px" font-family="sans-serif" y="1031" x="75">14</text><text style="font-size: 16px; font-weight: 400;" dy="1em" class="messageText" alignment-baseline="middle" dominant-baseline="middle" text-anchor="middle" y="1042" x="647">SELECT Public Key de Bob</text><line style="fill: none;" marker-start="url(#sequencenumber)" marker-end="url(#arrowhead)" stroke="none" stroke-width="2" class="messageLine0" y2="1071" x2="822" y1="1071" x1="471"/><text class="sequenceNumber" text-anchor="middle" font-size="12px" font-family="sans-serif" y="1075" x="471">15</text><text style="font-size: 16px; font-weight: 400;" dy="1em" class="messageText" alignment-baseline="middle" dominant-baseline="middle" text-anchor="middle" y="1086" x="273">Bob's Public Key (PEM)</text><line style="stroke-dasharray: 3, 3; fill: none;" marker-start="url(#sequencenumber)" marker-end="url(#arrowhead)" stroke="none" stroke-width="2" class="messageLine1" y2="1115" x2="75" y1="1115" x1="471"/><text class="sequenceNumber" text-anchor="middle" font-size="12px" font-family="sans-serif" y="1119" x="471">16</text><text style="font-size: 16px; font-weight: 400;" dy="1em" class="messageText" alignment-baseline="middle" dominant-baseline="middle" text-anchor="middle" y="1130" x="75">Generar Llave Efímera AES-256</text><path style="fill: none;" marker-start="url(#sequencenumber)" marker-end="url(#arrowhead)" stroke="none" stroke-width="2" class="messageLine0" d="M 75,1159 C 135,1149 135,1189 75,1179"/><text class="sequenceNumber" text-anchor="middle" font-size="12px" font-family="sans-serif" y="1163" x="75">17</text><text style="font-size: 16px; font-weight: 400;" dy="1em" class="messageText" alignment-baseline="middle" dominant-baseline="middle" text-anchor="middle" y="1204" x="75">Cifrar Mensaje con AES-GCM -&gt; (Ciphertext, Nonce, Tag)</text><path style="fill: none;" marker-start="url(#sequencenumber)" marker-end="url(#arrowhead)" stroke="none" stroke-width="2" class="messageLine0" d="M 75,1233 C 135,1223 135,1263 75,1253"/><text class="sequenceNumber" text-anchor="middle" font-size="12px" font-family="sans-serif" y="1237" x="75">18</text><text style="font-size: 16px; font-weight: 400;" dy="1em" class="messageText" alignment-baseline="middle" dominant-baseline="middle" text-anchor="middle" y="1278" x="75">Cifrar Llave AES con RSA-OAEP (Usando PubKey de Bob) -&gt; (EncryptedKey)</text><path style="fill: none;" marker-start="url(#sequencenumber)" marker-end="url(#arrowhead)" stroke="none" stroke-width="2" class="messageLine0" d="M 75,1307 C 135,1297 135,1337 75,1327"/><text class="sequenceNumber" text-anchor="middle" font-size="12px" font-family="sans-serif" y="1311" x="75">19</text><text style="font-size: 16px; font-weight: 400;" dy="1em" class="messageText" alignment-baseline="middle" dominant-baseline="middle" text-anchor="middle" y="1352" x="273">POST /api/messages</text><line style="fill: none;" marker-start="url(#sequencenumber)" marker-end="url(#arrowhead)" stroke="none" stroke-width="2" class="messageLine0" y2="1381" x2="471" y1="1381" x1="75"/><text class="sequenceNumber" text-anchor="middle" font-size="12px" font-family="sans-serif" y="1385" x="75">20</text><text style="font-size: 16px; font-weight: 400;" dy="1em" class="messageText" alignment-baseline="middle" dominant-baseline="middle" text-anchor="middle" y="1445" x="647">INSERT Message</text><line style="fill: none;" marker-start="url(#sequencenumber)" marker-end="url(#arrowhead)" stroke="none" stroke-width="2" class="messageLine0" y2="1474" x2="822" y1="1474" x1="471"/><text class="sequenceNumber" text-anchor="middle" font-size="12px" font-family="sans-serif" y="1478" x="471">21</text><text style="font-size: 16px; font-weight: 400;" dy="1em" class="messageText" alignment-baseline="middle" dominant-baseline="middle" text-anchor="middle" y="1489" x="273">201 Created</text><line style="stroke-dasharray: 3, 3; fill: none;" marker-start="url(#sequencenumber)" marker-end="url(#arrowhead)" stroke="none" stroke-width="2" class="messageLine1" y2="1518" x2="75" y1="1518" x1="471"/><text class="sequenceNumber" text-anchor="middle" font-size="12px" font-family="sans-serif" y="1522" x="471">22</text><text style="font-size: 16px; font-weight: 400;" dy="1em" class="messageText" alignment-baseline="middle" dominant-baseline="middle" text-anchor="middle" y="1582" x="747">GET /api/messages (Polling)</text><line style="fill: none;" marker-start="url(#sequencenumber)" marker-end="url(#arrowhead)" stroke="none" stroke-width="2" class="messageLine0" y2="1611" x2="471" y1="1611" x1="1022"/><text class="sequenceNumber" text-anchor="middle" font-size="12px" font-family="sans-serif" y="1615" x="1022">23</text><text style="font-size: 16px; font-weight: 400;" dy="1em" class="messageText" alignment-baseline="middle" dominant-baseline="middle" text-anchor="middle" y="1626" x="647">SELECT Messages WHERE recipient=Bob</text><line style="fill: none;" marker-start="url(#sequencenumber)" marker-end="url(#arrowhead)" stroke="none" stroke-width="2" class="messageLine0" y2="1655" x2="822" y1="1655" x1="471"/><text class="sequenceNumber" text-anchor="middle" font-size="12px" font-family="sans-serif" y="1659" x="471">24</text><text style="font-size: 16px; font-weight: 400;" dy="1em" class="messageText" alignment-baseline="middle" dominant-baseline="middle" text-anchor="middle" y="1670" x="747">Lista de Mensajes Cifrados</text><line style="stroke-dasharray: 3, 3; fill: none;" marker-start="url(#sequencenumber)" marker-end="url(#arrowhead)" stroke="none" stroke-width="2" class="messageLine1" y2="1699" x2="1022" y1="1699" x1="471"/><text class="sequenceNumber" text-anchor="middle" font-size="12px" font-family="sans-serif" y="1703" x="471">25</text><text style="font-size: 16px; font-weight: 400;" dy="1em" class="messageText" alignment-baseline="middle" dominant-baseline="middle" text-anchor="middle" y="1759" x="1022">Extraer EncryptedKey</text><path style="fill: none;" marker-start="url(#sequencenumber)" marker-end="url(#arrowhead)" stroke="none" stroke-width="2" class="messageLine0" d="M 1022,1788 C 1082,1778 1082,1818 1022,1808"/><text class="sequenceNumber" text-anchor="middle" font-size="12px" font-family="sans-serif" y="1792" x="1022">26</text><text style="font-size: 16px; font-weight: 400;" dy="1em" class="messageText" alignment-baseline="middle" dominant-baseline="middle" text-anchor="middle" y="1833" x="1022">Descifrar Llave AES con RSA-OAEP (Usando PrivKey de Bob)</text><path style="fill: none;" marker-start="url(#sequencenumber)" marker-end="url(#arrowhead)" stroke="none" stroke-width="2" class="messageLine0" d="M 1022,1862 C 1082,1852 1082,1892 1022,1882"/><text class="sequenceNumber" text-anchor="middle" font-size="12px" font-family="sans-serif" y="1866" x="1022">27</text><text style="font-size: 16px; font-weight: 400;" dy="1em" class="messageText" alignment-baseline="middle" dominant-baseline="middle" text-anchor="middle" y="1907" x="1022">Descifrar Mensaje con AES-GCM (Usando Llave AES recuperada)</text><path style="fill: none;" marker-start="url(#sequencenumber)" marker-end="url(#arrowhead)" stroke="none" stroke-width="2" class="messageLine0" d="M 1022,1936 C 1082,1926 1082,1966 1022,1956"/><text class="sequenceNumber" text-anchor="middle" font-size="12px" font-family="sans-serif" y="1940" x="1022">28</text><text style="font-size: 16px; font-weight: 400;" dy="1em" class="messageText" alignment-baseline="middle" dominant-baseline="middle" text-anchor="middle" y="1981" x="1022">Verificar Integridad (GCM Tag)</text><path style="fill: none;" marker-start="url(#sequencenumber)" marker-end="url(#arrowhead)" stroke="none" stroke-width="2" class="messageLine0" d="M 1022,2010 C 1082,2000 1082,2040 1022,2030"/><text class="sequenceNumber" text-anchor="middle" font-size="12px" font-family="sans-serif" y="2014" x="1022">29</text><text style="font-size: 16px; font-weight: 400;" dy="1em" class="messageText" alignment-baseline="middle" dominant-baseline="middle" text-anchor="middle" y="2055" x="1022">Mostrar Texto Plano</text><path style="fill: none;" marker-start="url(#sequencenumber)" marker-end="url(#arrowhead)" stroke="none" stroke-width="2" class="messageLine0" d="M 1022,2084 C 1082,2074 1082,2114 1022,2104"/><text class="sequenceNumber" text-anchor="middle" font-size="12px" font-family="sans-serif" y="2088" x="1022">30</text><g><rect class="actor" ry="3" rx="3" height="65" width="150" stroke="#666" fill="#eaeaea" y="2174" x="0"/><text style="text-anchor: middle; font-size: 16px; font-weight: 400;" class="actor" alignment-baseline="central" dominant-baseline="central" y="2206.5" x="75"><tspan dy="0" x="75">Alice (Navegador)</tspan></text></g><g><rect class="actor" ry="3" rx="3" height="65" width="150" stroke="#666" fill="#eaeaea" y="2174" x="396"/><text style="text-anchor: middle; font-size: 16px; font-weight: 400;" class="actor" alignment-baseline="central" dominant-baseline="central" y="2206.5" x="471"><tspan dy="0" x="471">Servidor Flask</tspan></text></g><g><rect class="actor" ry="3" rx="3" height="65" width="150" stroke="#666" fill="#eaeaea" y="2174" x="747"/><text style="text-anchor: middle; font-size: 16px; font-weight: 400;" class="actor" alignment-baseline="central" dominant-baseline="central" y="2206.5" x="822"><tspan dy="0" x="822">Base de Datos</tspan></text></g><g><rect class="actor" ry="3" rx="3" height="65" width="150" stroke="#666" fill="#eaeaea" y="2174" x="947"/><text style="text-anchor: middle; font-size: 16px; font-weight: 400;" class="actor" alignment-baseline="central" dominant-baseline="central" y="2206.5" x="1022"><tspan dy="0" x="1022">Bob (Navegador)</tspan></text></g></svg>